<svg width="32" height="30" viewBox="0 0 32 30" fill="none" xmlns="http://www.w3.org/2000/svg">
<path d="M9.06641 0.227927C8.78281 0.0846063 8.44796 0.0846062 8.16436 0.227927L0.548972 4.07635C0.212286 4.2465 0 4.59163 0 4.96886V29C0 29.5523 0.447715 30 1 30H31C31.5523 30 32 29.5523 32 29V8.60915C32 8.05687 31.5523 7.60916 31 7.60916H17.2308V4.96886C17.2308 4.59163 17.0185 4.2465 16.6818 4.07635L9.06641 0.227927ZM8.61538 2.77895L14.7692 5.88879V27.5121H2.46154V5.88879L8.61538 2.77895ZM4.92308 7.60916V10.097H7.38461V7.60916H4.92308ZM9.84615 7.60916V10.097H12.3077V7.60916H9.84615ZM17.2308 10.097H29.5385V27.5121H17.2308V10.097ZM4.92308 12.5849V15.0728H7.38461V12.5849H4.92308ZM9.84615 12.5849V15.0728H12.3077V12.5849H9.84615ZM19.6923 12.5849V15.0728H22.1538V12.5849H19.6923ZM24.6154 12.5849V15.0728H27.0769V12.5849H24.6154ZM4.92308 17.5606V20.0485H7.38461V17.5606H4.92308ZM9.84615 17.5606V20.0485H12.3077V17.5606H9.84615ZM19.6923 17.5606V20.0485H22.1538V17.5606H19.6923ZM24.6154 17.5606V20.0485H27.0769V17.5606H24.6154ZM4.92308 22.5364V25.0243H7.38461V22.5364H4.92308ZM9.84615 22.5364V25.0243H12.3077V22.5364H9.84615ZM19.6923 22.5364V25.0243H22.1538V22.5364H19.6923ZM24.6154 22.5364V25.0243H27.0769V22.5364H24.6154Z" fill="#BEBEBE"/>
</svg>
