<svg width="31" height="31" viewBox="0 0 31 31" fill="none" xmlns="http://www.w3.org/2000/svg">
<path d="M14.7791 27.4141H2.45116C2.37468 27.4141 2.30133 27.3837 2.24725 27.3296C2.19317 27.2756 2.16279 27.2022 2.16279 27.1257V25.035C2.16279 23.8368 3.01781 22.7814 4.33567 21.8846C6.68879 20.2783 10.4967 19.2661 14.7791 19.2661C15.0659 19.2661 15.3409 19.1522 15.5437 18.9494C15.7465 18.7466 15.8605 18.4715 15.8605 18.1847C15.8605 17.8979 15.7465 17.6229 15.5437 17.4201C15.3409 17.2173 15.0659 17.1033 14.7791 17.1033C9.98921 17.1033 5.7487 18.3015 3.11586 20.0967C1.10735 21.4664 0 23.2067 0 25.0336V27.1257C0 27.7758 0.258247 28.3993 0.717929 28.859C1.17761 29.3186 1.80107 29.5769 2.45116 29.5769H14.7791C15.0659 29.5769 15.3409 29.4629 15.5437 29.2601C15.7465 29.0573 15.8605 28.7823 15.8605 28.4955C15.8605 28.2087 15.7465 27.9336 15.5437 27.7308C15.3409 27.528 15.0659 27.4141 14.7791 27.4141ZM14.7791 0C10.4016 0 6.84884 3.55274 6.84884 7.93023C6.84884 12.3077 10.4016 15.8605 14.7791 15.8605C19.1566 15.8605 22.7093 12.3077 22.7093 7.93023C22.7093 3.55274 19.1566 0 14.7791 0ZM14.7791 2.16279C17.9627 2.16279 20.5465 4.7466 20.5465 7.93023C20.5465 11.1139 17.9627 13.6977 14.7791 13.6977C11.5954 13.6977 9.01163 11.1139 9.01163 7.93023C9.01163 4.7466 11.5954 2.16279 14.7791 2.16279ZM22.3488 23.4302V27.0349C22.3488 27.3217 22.4628 27.5967 22.6656 27.7995C22.8684 28.0023 23.1434 28.1163 23.4302 28.1163C23.717 28.1163 23.9921 28.0023 24.1949 27.7995C24.3977 27.5967 24.5116 27.3217 24.5116 27.0349V23.4302C24.5116 23.1434 24.3977 22.8684 24.1949 22.6656C23.9921 22.4628 23.717 22.3488 23.4302 22.3488C23.1434 22.3488 22.8684 22.4628 22.6656 22.6656C22.4628 22.8684 22.3488 23.1434 22.3488 23.4302Z" fill="#BEBEBE"/>
<path d="M23.4301 21.6279C24.2265 21.6279 24.872 20.9824 24.872 20.1861C24.872 19.3897 24.2265 18.7442 23.4301 18.7442C22.6338 18.7442 21.9883 19.3897 21.9883 20.1861C21.9883 20.9824 22.6338 21.6279 23.4301 21.6279Z" fill="#BEBEBE"/>
<path d="M23.4301 15.8605C19.2516 15.8605 15.8604 19.2517 15.8604 23.4302C15.8604 27.6088 19.2516 31 23.4301 31C27.6086 31 30.9999 27.6088 30.9999 23.4302C30.9999 19.2517 27.6086 15.8605 23.4301 15.8605ZM23.4301 18.0233C26.4148 18.0233 28.8371 20.4456 28.8371 23.4302C28.8371 26.4149 26.4148 28.8372 23.4301 28.8372C20.4455 28.8372 18.0231 26.4149 18.0231 23.4302C18.0231 20.4456 20.4455 18.0233 23.4301 18.0233Z" fill="#BEBEBE"/>
</svg>
