<svg width="31" height="31" viewBox="0 0 31 31" fill="none" xmlns="http://www.w3.org/2000/svg">
<g clip-path="url(#clip0_19_138)">
<path d="M5.49923 19.605V13.715C5.49923 9.34 8.2992 5.52503 12.1543 4.10004C12.1092 3.87501 12.0843 3.64505 12.0843 3.41502C12.0842 1.53003 13.6142 0 15.4992 0C17.3842 0 18.9142 1.53003 18.9142 3.41502C18.9142 3.64004 18.8893 3.86499 18.8493 4.08C20.1742 4.55001 21.3992 5.29499 22.4442 6.30499C24.4142 8.205 25.4992 10.76 25.4992 13.5V19.605C25.4992 19.82 25.6742 20 25.8942 20C27.7392 20 29.3142 21.39 29.4843 23.16C29.5793 24.1451 29.2542 25.125 28.5892 25.8551C27.9293 26.5801 26.9842 27.0001 25.9993 27.0001H19.9692C19.7192 29.2451 17.8092 31.0001 15.4992 31.0001C13.1892 31.0001 11.2792 29.2451 11.0292 27.0001H4.99916C4.01412 27.0001 3.06917 26.5801 2.40919 25.8551C1.74922 25.125 1.42416 24.1451 1.51417 23.16C1.68418 21.39 3.26414 20 5.1042 20C5.15616 20.0003 5.20766 19.9903 5.25573 19.9706C5.30379 19.9508 5.34745 19.9217 5.3842 19.885C5.42094 19.8483 5.45003 19.8046 5.46977 19.7565C5.48952 19.7085 5.49953 19.657 5.49923 19.605ZM15.4992 1.99996C14.7192 1.99996 14.0842 2.63497 14.0842 3.41493C14.0842 3.47989 14.0943 3.53993 14.1043 3.60489C14.4443 3.55488 14.7893 3.51989 15.1343 3.50987C15.7293 3.48983 16.3143 3.52991 16.8943 3.6099C16.9043 3.54494 16.9143 3.4849 16.9143 3.41994C16.9142 2.63497 16.2792 1.99996 15.4992 1.99996ZM15.4992 29C16.7042 29 17.7142 28.1399 17.9492 27H13.0493C13.2842 28.14 14.2942 29 15.4992 29ZM3.5042 23.35C3.4642 23.78 3.59922 24.195 3.8842 24.51C4.1792 24.825 4.56922 24.9999 4.99916 24.9999H25.9992C26.4292 24.9999 26.8191 24.8249 27.1092 24.51C27.3992 24.195 27.5342 23.7799 27.4942 23.35C27.4243 22.595 26.7192 22 25.8942 22C24.5742 22 23.4992 20.925 23.4992 19.605V13.5C23.4992 11.31 22.6293 9.26502 21.0542 7.74501C19.5492 6.29004 17.5892 5.49998 15.4992 5.49998C15.3992 5.49998 15.3042 5.49998 15.2042 5.50499C10.9592 5.65495 7.49919 9.34 7.49919 13.715V19.605C7.49919 20.925 6.42423 22 5.1042 22C4.27923 22 3.57918 22.595 3.5042 23.35Z" fill="#BEBEBE"/>
</g>
<defs>
<clipPath id="clip0_19_138">
<rect width="31" height="31" fill="white" transform="matrix(-1 0 0 1 31 0)"/>
</clipPath>
</defs>
</svg>
