<svg width="29" height="30" viewBox="0 0 29 30" fill="none" xmlns="http://www.w3.org/2000/svg">
<path d="M25.791 1.80188L18.0936 0.084121C17.0319 -0.153042 15.8839 0.11864 15.0363 0.806042C14.3174 1.38815 13.8461 2.22602 13.7191 3.14788H9.34217C8.5897 3.14788 7.87926 3.42626 7.34163 3.93138C6.79172 4.44768 6.47607 5.16836 6.47607 5.90866V8.16357C6.47607 8.42703 6.57967 8.67969 6.76408 8.86598C6.94849 9.05227 7.19859 9.15693 7.45938 9.15693C7.72017 9.15693 7.97028 9.05227 8.15469 8.86598C8.33909 8.67969 8.44269 8.42703 8.44269 8.16357V5.90866C8.44269 5.71595 8.52701 5.53069 8.68065 5.3864C8.85077 5.22622 9.09217 5.13459 9.34193 5.13459H13.6788V24.8976H9.34217C9.09192 24.8976 8.85077 24.8057 8.68016 24.6456C8.52726 24.502 8.44294 24.3168 8.44294 24.1236V21.8689C8.44294 21.6054 8.33934 21.3528 8.15493 21.1665C7.97053 20.9802 7.72042 20.8755 7.45963 20.8755C7.19884 20.8755 6.94873 20.9802 6.76432 21.1665C6.57992 21.3528 6.47632 21.6054 6.47632 21.8689V24.1236C6.47632 24.8641 6.79172 25.585 7.34188 26.1008C7.87975 26.606 8.59019 26.8841 9.34242 26.8841H13.7253C13.8589 27.7928 14.3273 28.6169 15.0368 29.1917C15.6818 29.7141 16.4837 29.9991 17.3104 30C17.5735 30 17.8372 29.9709 18.0941 29.9136L25.7912 28.1961C27.6806 27.7744 29 26.115 29 24.1606V5.83738C28.9993 3.88271 27.6799 2.22331 25.791 1.80188ZM27.0326 24.1611C27.0351 24.6504 26.8708 25.1257 26.5675 25.5073C26.2642 25.8888 25.8402 26.1534 25.3667 26.2565L17.6693 27.9743C17.426 28.0272 17.1742 28.025 16.9319 27.9678C16.6895 27.9106 16.4628 27.7998 16.2679 27.6435C16.0732 27.4862 15.9161 27.2866 15.8083 27.0595C15.7006 26.8324 15.6449 26.5836 15.6454 26.3318V3.66666C15.6454 3.15408 15.8723 2.67603 16.2679 2.35493C16.5636 2.11557 16.9312 1.98491 17.3102 1.98441C17.4306 1.98441 17.5516 1.99782 17.6693 2.02414L25.3667 3.7419C25.8402 3.84509 26.2642 4.10964 26.5675 4.49118C26.8708 4.87272 27.0351 5.34803 27.0326 5.83738V24.1611Z" fill="#BEBEBE"/>
<path d="M19.0496 12.7263C18.7889 12.7263 18.5387 12.8309 18.3543 13.0172C18.1699 13.2035 18.0663 13.4562 18.0663 13.7196V16.39C18.0663 16.6535 18.1699 16.9062 18.3543 17.0924C18.5387 17.2787 18.7889 17.3834 19.0496 17.3834C19.3104 17.3834 19.5605 17.2787 19.745 17.0924C19.9294 16.9062 20.033 16.6535 20.033 16.39V13.7196C20.033 13.4562 19.9294 13.2035 19.745 13.0172C19.5605 12.8309 19.3104 12.7263 19.0496 12.7263ZM6.84014 17.8756C6.74878 17.9678 6.6763 18.0773 6.62685 18.1978C6.57739 18.3183 6.55194 18.4474 6.55194 18.5779C6.55194 18.7083 6.57739 18.8375 6.62685 18.958C6.6763 19.0785 6.74878 19.188 6.84014 19.2802C7.03189 19.4742 7.28386 19.5713 7.53534 19.5713C7.78682 19.5713 8.03855 19.4742 8.23054 19.2802L11.7562 15.7188C11.9406 15.5324 12.0441 15.2798 12.0441 15.0163C12.0441 14.7529 11.9406 14.5002 11.7562 14.3139L8.23054 10.7525C8.13961 10.6586 8.03113 10.5838 7.91139 10.5325C7.79165 10.4812 7.66303 10.4544 7.53298 10.4537C7.40292 10.453 7.27402 10.4783 7.15373 10.5283C7.03344 10.5782 6.92415 10.6518 6.8322 10.7447C6.74024 10.8376 6.66744 10.948 6.61802 11.0696C6.5686 11.1911 6.54353 11.3213 6.54427 11.4527C6.54501 11.5841 6.57154 11.714 6.62233 11.835C6.67311 11.9559 6.74715 12.0655 6.84014 12.1573L8.68704 14.0231H0.983309C0.722519 14.0231 0.472411 14.1278 0.288005 14.3141C0.103598 14.5004 0 14.753 0 15.0165C0 15.2799 0.103598 15.5326 0.288005 15.7189C0.472411 15.9052 0.722519 16.0098 0.983309 16.0098H8.68704L6.84014 17.8756Z" fill="#BEBEBE"/>
</svg>
