<svg width="16" height="20" viewBox="0 0 16 20" fill="none" xmlns="http://www.w3.org/2000/svg">
<path d="M2 20C1.45 20 0.979001 19.8133 0.587001 19.44C0.195002 19.0667 -0.000664969 18.6184 1.69779e-06 18.0952V8.57143C1.69779e-06 8.04762 0.196001 7.59905 0.588001 7.22571C0.980001 6.85238 1.45067 6.66603 2 6.66667H3V4.7619C3 3.44444 3.48767 2.32127 4.463 1.39238C5.43833 0.463493 6.61733 -0.00063427 8 6.50534e-07C9.38333 6.50534e-07 10.5627 0.464445 11.538 1.39333C12.5133 2.32222 13.0007 3.44508 13 4.7619V6.66667H14C14.55 6.66667 15.021 6.85333 15.413 7.22667C15.805 7.6 16.0007 8.04825 16 8.57143V18.0952C16 18.619 15.804 19.0676 15.412 19.441C15.02 19.8143 14.5493 20.0006 14 20H2ZM2 18.0952H14V8.57143H2V18.0952ZM8 15.2381C8.55 15.2381 9.021 15.0514 9.413 14.6781C9.805 14.3048 10.0007 13.8565 10 13.3333C10 12.8095 9.804 12.361 9.412 11.9876C9.02 11.6143 8.54933 11.4279 8 11.4286C7.45 11.4286 6.979 11.6152 6.587 11.9886C6.195 12.3619 5.99933 12.8102 6 13.3333C6 13.8571 6.196 14.3057 6.588 14.679C6.98 15.0524 7.45067 15.2387 8 15.2381ZM5 6.66667H11V4.7619C11 3.96825 10.7083 3.29365 10.125 2.7381C9.54167 2.18254 8.83333 1.90476 8 1.90476C7.16667 1.90476 6.45833 2.18254 5.875 2.7381C5.29167 3.29365 5 3.96825 5 4.7619V6.66667Z" fill="url(#paint0_linear_1_452)"/>
<defs>
<linearGradient id="paint0_linear_1_452" x1="5.9435" y1="-12.6" x2="17.8884" y2="-10.6262" gradientUnits="userSpaceOnUse">
<stop stop-color="#2BB06F"/>
<stop offset="1" stop-color="#029643"/>
</linearGradient>
</defs>
</svg>
