<svg width="22" height="22" viewBox="0 0 22 22" fill="none" xmlns="http://www.w3.org/2000/svg">
<path d="M5.36251 15.675C6.14168 15.0792 7.01251 14.6092 7.97501 14.2652C8.93751 13.9217 9.94584 13.75 11 13.75C12.0542 13.75 13.0625 13.9217 14.025 14.2652C14.9875 14.6092 15.8583 15.0792 16.6375 15.675C17.1722 15.0486 17.5887 14.3382 17.8869 13.5437C18.1845 12.7493 18.3333 11.9014 18.3333 11C18.3333 8.96805 17.6193 7.23769 16.1911 5.80891C14.7623 4.38074 13.032 3.66666 11 3.66666C8.96807 3.66666 7.23801 4.38074 5.80984 5.80891C4.38107 7.23769 3.66668 8.96805 3.66668 11C3.66668 11.9014 3.81579 12.7493 4.11401 13.5437C4.41162 14.3382 4.82779 15.0486 5.36251 15.675ZM11 11.9167C10.0986 11.9167 9.3384 11.6074 8.71934 10.989C8.1009 10.3699 7.79168 9.60972 7.79168 8.70833C7.79168 7.80694 8.1009 7.04672 8.71934 6.42766C9.3384 5.80922 10.0986 5.49999 11 5.49999C11.9014 5.49999 12.6616 5.80922 13.2807 6.42766C13.8991 7.04672 14.2083 7.80694 14.2083 8.70833C14.2083 9.60972 13.8991 10.3699 13.2807 10.989C12.6616 11.6074 11.9014 11.9167 11 11.9167ZM11 20.1667C9.73195 20.1667 8.54029 19.9259 7.42501 19.4443C6.30973 18.9634 5.33959 18.3104 4.51459 17.4854C3.68959 16.6604 3.03662 15.6903 2.55568 14.575C2.07412 13.4597 1.83334 12.2681 1.83334 11C1.83334 9.73194 2.07412 8.54027 2.55568 7.425C3.03662 6.30972 3.68959 5.33958 4.51459 4.51458C5.33959 3.68958 6.30973 3.0363 7.42501 2.55474C8.54029 2.0738 9.73195 1.83333 11 1.83333C12.2681 1.83333 13.4597 2.0738 14.575 2.55474C15.6903 3.0363 16.6604 3.68958 17.4854 4.51458C18.3104 5.33958 18.9634 6.30972 19.4443 7.425C19.9259 8.54027 20.1667 9.73194 20.1667 11C20.1667 12.2681 19.9259 13.4597 19.4443 14.575C18.9634 15.6903 18.3104 16.6604 17.4854 17.4854C16.6604 18.3104 15.6903 18.9634 14.575 19.4443C13.4597 19.9259 12.2681 20.1667 11 20.1667ZM11 18.3333C11.8097 18.3333 12.5736 18.2151 13.2917 17.9786C14.0097 17.7415 14.6667 17.4014 15.2625 16.9583C14.6667 16.5153 14.0097 16.1752 13.2917 15.9381C12.5736 15.7016 11.8097 15.5833 11 15.5833C10.1903 15.5833 9.4264 15.7016 8.70834 15.9381C7.99029 16.1752 7.33334 16.5153 6.73751 16.9583C7.33334 17.4014 7.99029 17.7415 8.70834 17.9786C9.4264 18.2151 10.1903 18.3333 11 18.3333ZM11 10.0833C11.3972 10.0833 11.7257 9.95347 11.9854 9.69375C12.2451 9.43402 12.375 9.10555 12.375 8.70833C12.375 8.31111 12.2451 7.98263 11.9854 7.72291C11.7257 7.46319 11.3972 7.33333 11 7.33333C10.6028 7.33333 10.2743 7.46319 10.0146 7.72291C9.75487 7.98263 9.62501 8.31111 9.62501 8.70833C9.62501 9.10555 9.75487 9.43402 10.0146 9.69375C10.2743 9.95347 10.6028 10.0833 11 10.0833Z" fill="#01A856"/>
</svg>
