<svg width="17" height="15" viewBox="0 0 17 15" fill="none" xmlns="http://www.w3.org/2000/svg">
<path d="M9.67607 0.003057C8.66797 -0.0255778 7.66435 0.147196 6.72457 0.511157C5.78479 0.875118 4.92795 1.42287 4.20475 2.12201C3.48155 2.82114 2.90667 3.65746 2.51415 4.58147C2.12162 5.50548 1.91941 6.49842 1.91949 7.50153H0.420107C0.0431675 7.50153 -0.141114 7.95144 0.126932 8.20972L2.46396 10.5342C2.63149 10.7009 2.89116 10.7009 3.05868 10.5342L5.40409 8.20972C5.65538 7.95144 5.4711 7.50153 5.09416 7.50153H3.59478C3.59478 4.26052 6.27523 1.61939 9.54204 1.66938C12.6497 1.71104 15.2715 4.31884 15.3218 7.41821C15.372 10.6759 12.7251 13.3337 9.45828 13.3337C8.12643 13.3337 6.90347 12.8921 5.91505 12.1422C5.57999 11.8923 5.11091 11.9173 4.81773 12.2172C4.45755 12.5755 4.49105 13.167 4.89312 13.467C6.20441 14.4625 7.80864 15.0013 9.45828 15C13.6968 15 17.1143 11.5257 16.9971 7.29324C16.8882 3.37737 13.6046 0.111368 9.67607 0.003057Z" fill="url(#paint0_linear_1_468)"/>
<defs>
<linearGradient id="paint0_linear_1_468" x1="6.31497" y1="-9.45" x2="18.6756" y2="-6.5564" gradientUnits="userSpaceOnUse">
<stop stop-color="#2BB06F"/>
<stop offset="1" stop-color="#029643"/>
</linearGradient>
</defs>
</svg>
