<svg width="10" height="6" viewBox="0 0 10 6" fill="none" xmlns="http://www.w3.org/2000/svg">
<path d="M5.0001 5.23125C4.9001 5.23125 4.80335 5.2125 4.70985 5.175C4.61585 5.1375 4.5376 5.0875 4.4751 5.025L1.0251 1.575C0.887597 1.4375 0.818848 1.2625 0.818848 1.05C0.818848 0.837498 0.887597 0.662498 1.0251 0.524998C1.1626 0.387498 1.3376 0.318748 1.5501 0.318748C1.7626 0.318748 1.9376 0.387498 2.0751 0.524998L5.0001 3.45L7.9251 0.524998C8.0626 0.387498 8.2376 0.318748 8.4501 0.318748C8.6626 0.318748 8.8376 0.387498 8.9751 0.524998C9.1126 0.662498 9.18135 0.837498 9.18135 1.05C9.18135 1.2625 9.1126 1.4375 8.9751 1.575L5.5251 5.025C5.4501 5.1 5.36885 5.153 5.28135 5.184C5.19385 5.2155 5.1001 5.23125 5.0001 5.23125Z" fill="#A5A5A5"/>
</svg>
