<svg width="18" height="18" viewBox="0 0 18 18" fill="none" xmlns="http://www.w3.org/2000/svg">
<g clip-path="url(#clip0_9_83)">
<path d="M17.437 7.8745C17.1265 7.8745 16.8746 8.12648 16.8746 8.43696V14.8063L12.3748 16.6062V10.6868C12.3748 10.3763 12.1229 10.1244 11.8124 10.1244C11.5019 10.1244 11.2499 10.3763 11.2499 10.6868V16.6051L6.75019 14.8052V5.89349L9.35665 6.9363C9.64126 7.05105 9.97199 6.91156 10.0879 6.62245C10.2037 6.33447 10.0631 6.00711 9.774 5.89124L6.40708 4.54358H6.40596L6.39696 4.5402C6.26308 4.48621 6.11349 4.48621 5.97961 4.5402L5.96949 4.54358H5.96836L0.353838 6.79006C0.249585 6.83187 0.160232 6.90392 0.0972799 6.99695C0.0343281 7.08997 0.000660226 7.19971 0.000610352 7.31203V17.4364C0.000610352 17.6231 0.0939795 17.7975 0.248095 17.9021C0.340974 17.9653 0.450743 17.999 0.563075 17.9989C0.633946 17.9989 0.704816 17.9854 0.772312 17.9584L6.18772 15.7929L11.593 17.955H11.5941L11.6043 17.9595C11.7381 18.0135 11.8877 18.0135 12.0216 17.9595L12.0317 17.955H12.0329L17.6474 15.7096C17.8589 15.623 17.9995 15.4171 17.9995 15.1865V8.43696C17.9995 8.12648 17.7475 7.8745 17.437 7.8745ZM5.62526 14.8052L1.12554 16.6051V7.69226L5.62526 5.89237V14.8052ZM14.0622 2.24985C13.1319 2.24985 12.3748 3.00693 12.3748 3.93724C12.3748 4.86756 13.1319 5.62464 14.0622 5.62464C14.9925 5.62464 15.7496 4.86756 15.7496 3.93724C15.7496 3.00693 14.9925 2.24985 14.0622 2.24985ZM14.0622 4.49971C13.7518 4.49971 13.4998 4.24772 13.4998 3.93724C13.4998 3.62676 13.7518 3.37478 14.0622 3.37478C14.3727 3.37478 14.6247 3.62676 14.6247 3.93724C14.6247 4.24772 14.3727 4.49971 14.0622 4.49971Z" fill="url(#paint0_linear_9_83)"/>
<path d="M14.0623 0C11.8911 0 10.125 1.76614 10.125 3.93725C10.125 5.95763 13.2838 9.53603 13.6438 9.93763C13.7506 10.0557 13.9025 10.1244 14.0623 10.1244C14.222 10.1244 14.3739 10.0557 14.4807 9.93763C14.8407 9.53603 17.9995 5.95763 17.9995 3.93725C17.9995 1.76614 16.2334 0 14.0623 0ZM14.0623 8.70358C12.8338 7.2468 11.2499 5.01044 11.2499 3.93725C11.2499 2.3871 12.5121 1.12493 14.0623 1.12493C15.6124 1.12493 16.8746 2.3871 16.8746 3.93725C16.8746 5.00931 15.2907 7.2468 14.0623 8.70358Z" fill="url(#paint1_linear_9_83)"/>
</g>
<defs>
<linearGradient id="paint0_linear_9_83" x1="1.53052" y1="2.24985" x2="22.4621" y2="18.6047" gradientUnits="userSpaceOnUse">
<stop stop-color="#7FBFE6"/>
<stop offset="1" stop-color="#0097D7"/>
</linearGradient>
<linearGradient id="paint1_linear_9_83" x1="10.7943" y1="-4.78387e-07" x2="22.2913" y2="6.11396" gradientUnits="userSpaceOnUse">
<stop stop-color="#7FBFE6"/>
<stop offset="1" stop-color="#0097D7"/>
</linearGradient>
<clipPath id="clip0_9_83">
<rect width="18" height="18" fill="white"/>
</clipPath>
</defs>
</svg>
