<svg width="17" height="19" viewBox="0 0 17 19" fill="none" xmlns="http://www.w3.org/2000/svg">
<path d="M14.625 2.5H13.75V1.625C13.75 1.14375 13.3562 0.75 12.875 0.75C12.3938 0.75 12 1.14375 12 1.625V2.5H5V1.625C5 1.14375 4.60625 0.75 4.125 0.75C3.64375 0.75 3.25 1.14375 3.25 1.625V2.5H2.375C1.40375 2.5 0.63375 3.2875 0.63375 4.25L0.625 16.5C0.625 16.9641 0.809374 17.4092 1.13756 17.7374C1.46575 18.0656 1.91087 18.25 2.375 18.25H14.625C15.5875 18.25 16.375 17.4625 16.375 16.5V4.25C16.375 3.2875 15.5875 2.5 14.625 2.5ZM14.625 15.625C14.625 16.1062 14.2312 16.5 13.75 16.5H3.25C2.76875 16.5 2.375 16.1062 2.375 15.625V6.875H14.625V15.625ZM4.125 8.625H5.875V10.375H4.125V8.625ZM7.625 8.625H9.375V10.375H7.625V8.625ZM11.125 8.625H12.875V10.375H11.125V8.625Z" fill="url(#paint0_linear_0_519)"/>
<defs>
<linearGradient id="paint0_linear_0_519" x1="6.47564" y1="-10.275" x2="18.1514" y2="-8.10445" gradientUnits="userSpaceOnUse">
<stop stop-color="#2BB06F"/>
<stop offset="1" stop-color="#029643"/>
</linearGradient>
</defs>
</svg>
