<svg width="13" height="16" viewBox="0 0 13 16" fill="none" xmlns="http://www.w3.org/2000/svg">
<path d="M11.4583 2H10.75V1.25C10.75 0.8375 10.4312 0.5 10.0417 0.5C9.65208 0.5 9.33333 0.8375 9.33333 1.25V2H3.66667V1.25C3.66667 0.8375 3.34792 0.5 2.95833 0.5C2.56875 0.5 2.25 0.8375 2.25 1.25V2H1.54167C0.755417 2 0.132083 2.675 0.132083 3.5L0.125 14C0.125 14.3978 0.274255 14.7794 0.539932 15.0607C0.805609 15.342 1.16594 15.5 1.54167 15.5H11.4583C12.2375 15.5 12.875 14.825 12.875 14V3.5C12.875 2.675 12.2375 2 11.4583 2ZM11.4583 13.25C11.4583 13.6625 11.1396 14 10.75 14H2.25C1.86042 14 1.54167 13.6625 1.54167 13.25V5.75H11.4583V13.25ZM2.95833 7.25H4.375V8.75H2.95833V7.25ZM5.79167 7.25H7.20833V8.75H5.79167V7.25ZM8.625 7.25H10.0417V8.75H8.625V7.25Z" fill="#5DACDF"/>
</svg>
