<svg width="19" height="21" viewBox="0 0 19 21" fill="none" xmlns="http://www.w3.org/2000/svg">
<path d="M2.27177 14.6H0.826099C0.607004 14.6 0.396882 14.6843 0.241959 14.8343C0.0870353 14.9843 0 15.1878 0 15.4V20.2C0 20.4122 0.0870353 20.6157 0.241959 20.7657C0.396882 20.9157 0.607004 21 0.826099 21H2.27177C3.14815 21 3.98864 20.6629 4.60833 20.0627C5.22803 19.4626 5.57617 18.6487 5.57617 17.8C5.57617 16.9513 5.22803 16.1374 4.60833 15.5373C3.98864 14.9371 3.14815 14.6 2.27177 14.6ZM2.27177 19.4H1.6522V16.2H2.27177C2.70996 16.2 3.1302 16.3686 3.44005 16.6686C3.7499 16.9687 3.92397 17.3757 3.92397 17.8C3.92397 18.2243 3.7499 18.6313 3.44005 18.9314C3.1302 19.2314 2.70996 19.4 2.27177 19.4ZM9.70666 14.6C8.00283 14.6 6.60879 16.04 6.60879 17.8C6.60879 19.56 8.00283 21 9.70666 21C11.4105 21 12.8045 19.56 12.8045 17.8C12.8045 16.04 11.4105 14.6 9.70666 14.6ZM9.70666 19.4C8.91154 19.4 8.26099 18.68 8.26099 17.8C8.26099 16.92 8.91154 16.2 9.70666 16.2C10.5018 16.2 11.1523 16.92 11.1523 17.8C11.1523 18.68 10.5018 19.4 9.70666 19.4ZM18.7834 19.12C18.9313 19.2765 19.0089 19.4835 18.9992 19.6954C18.9895 19.9073 18.8933 20.1068 18.7318 20.25C18.1812 20.7288 17.4685 20.9957 16.7285 21C15.0247 21 13.6306 19.56 13.6306 17.8C13.6306 16.04 15.0247 14.6 16.7285 14.6C17.4685 14.6043 18.1812 14.8712 18.7318 15.35C18.8933 15.4932 18.9895 15.6928 18.9992 15.9047C19.0089 16.1166 18.9313 16.3235 18.7834 16.48C18.7117 16.5593 18.6242 16.6239 18.5263 16.67C18.4283 16.7161 18.3218 16.7427 18.2131 16.7483C18.1043 16.7539 17.9955 16.7384 17.893 16.7026C17.7906 16.6668 17.6966 16.6115 17.6166 16.54C17.3741 16.3243 17.0577 16.2032 16.7285 16.2C15.9334 16.2 15.2828 16.92 15.2828 17.8C15.2828 18.68 15.9334 19.4 16.7285 19.4C17.0577 19.3968 17.3741 19.2757 17.6166 19.06C17.6966 18.9885 17.7906 18.9332 17.893 18.8974C17.9955 18.8616 18.1043 18.8461 18.2131 18.8517C18.3218 18.8573 18.4283 18.8839 18.5263 18.93C18.6242 18.9761 18.7117 19.0407 18.7834 19.12ZM1.23915 12.2C1.45824 12.2 1.66836 12.1157 1.82329 11.9657C1.97821 11.8157 2.06525 11.6122 2.06525 11.4V2.60001H11.1523V7.40001C11.1523 7.61218 11.2394 7.81567 11.3943 7.96569C11.5492 8.11572 11.7593 8.20001 11.9784 8.20001H16.935V11.4C16.935 11.6122 17.0221 11.8157 17.177 11.9657C17.3319 12.1157 17.542 12.2 17.7611 12.2C17.9802 12.2 18.1903 12.1157 18.3453 11.9657C18.5002 11.8157 18.5872 11.6122 18.5872 11.4V7.40001C18.5882 7.29366 18.5668 7.18823 18.5241 7.09021C18.4815 6.99218 18.4186 6.90364 18.3394 6.83001L12.567 1.23001C12.4097 1.08143 12.1982 0.998813 11.9784 1.00001H2.06525C1.62706 1.00001 1.20681 1.16858 0.896967 1.46864C0.58712 1.7687 0.413049 2.17567 0.413049 2.60001V11.4C0.413049 11.6122 0.500085 11.8157 0.655008 11.9657C0.809932 12.1157 1.02005 12.2 1.23915 12.2ZM12.8045 3.73001L15.7682 6.60001H12.8045V3.73001Z" fill="#5DACDF"/>
</svg>
