<svg width="20" height="22" viewBox="0 0 20 22" fill="none" xmlns="http://www.w3.org/2000/svg">
<path d="M14.8984 15.7266C15.3731 15.7266 15.7578 15.3418 15.7578 14.8672C15.7578 14.3926 15.3731 14.0078 14.8984 14.0078C14.4238 14.0078 14.0391 14.3926 14.0391 14.8672C14.0391 15.3418 14.4238 15.7266 14.8984 15.7266Z" fill="#5DACDF"/>
<path d="M18.7656 15.5547C19.2403 15.5547 19.625 15.1699 19.625 14.6953V11.5156C19.625 9.62019 18.0829 8.07812 16.1875 8.07812H15.1547V5.04737C15.1547 2.26424 12.8416 0 9.99841 0C7.15525 0 4.84216 2.26424 4.84216 5.04737V8.07812H3.8125C1.91706 8.07812 0.375 9.62019 0.375 11.5156V18.5625C0.375 20.4579 1.91706 22 3.8125 22H16.1875C18.0829 22 19.625 20.4579 19.625 18.5625C19.625 18.0879 19.2403 17.7031 18.7656 17.7031C18.291 17.7031 17.9062 18.0879 17.9062 18.5625C17.9062 19.5102 17.1352 20.2812 16.1875 20.2812H3.8125C2.86478 20.2812 2.09375 19.5102 2.09375 18.5625V11.5156C2.09375 10.5679 2.86478 9.79688 3.8125 9.79688H16.1875C17.1352 9.79688 17.9062 10.5679 17.9062 11.5156V14.6953C17.9062 15.1699 18.291 15.5547 18.7656 15.5547ZM13.4359 8.07812H6.56091V5.04737C6.56091 3.21196 8.10297 1.71875 9.99841 1.71875C11.8938 1.71875 13.4359 3.21196 13.4359 5.04737V8.07812Z" fill="#5DACDF"/>
<path d="M8.41016 15.7266C8.88478 15.7266 9.26953 15.3418 9.26953 14.8672C9.26953 14.3926 8.88478 14.0078 8.41016 14.0078C7.93554 14.0078 7.55078 14.3926 7.55078 14.8672C7.55078 15.3418 7.93554 15.7266 8.41016 15.7266Z" fill="#5DACDF"/>
<path d="M5.1875 15.7266C5.66212 15.7266 6.04688 15.3418 6.04688 14.8672C6.04688 14.3926 5.66212 14.0078 5.1875 14.0078C4.71288 14.0078 4.32812 14.3926 4.32812 14.8672C4.32812 15.3418 4.71288 15.7266 5.1875 15.7266Z" fill="#5DACDF"/>
<path d="M11.6328 15.7266C12.1074 15.7266 12.4922 15.3418 12.4922 14.8672C12.4922 14.3926 12.1074 14.0078 11.6328 14.0078C11.1582 14.0078 10.7734 14.3926 10.7734 14.8672C10.7734 15.3418 11.1582 15.7266 11.6328 15.7266Z" fill="#5DACDF"/>
</svg>
