<svg width="35" height="35" viewBox="0 0 35 35" fill="none" xmlns="http://www.w3.org/2000/svg">
<circle cx="17.5" cy="17.5" r="17.5" fill="url(#paint0_linear_19_1082)"/>
<path d="M25.1666 6.95833V9.83333H28.0416V11.75H25.1666V14.625H23.2499V11.75H20.3749V9.83333H23.2499V6.95833H25.1666ZM17.4999 18.4583C16.4458 18.4583 15.5833 17.5958 15.5833 16.5417C15.5833 15.4875 16.4458 14.625 17.4999 14.625C18.5541 14.625 19.4166 15.4875 19.4166 16.5417C19.4166 17.5958 18.5541 18.4583 17.4999 18.4583ZM18.4583 8.9325V10.8683C18.1412 10.8182 17.8209 10.7926 17.4999 10.7917C14.2895 10.7917 11.7499 13.2546 11.7499 16.7333C11.7499 18.9758 13.6187 21.9467 17.4999 25.4925C21.3812 21.9467 23.2499 18.9854 23.2499 16.7333V16.5417H25.1666V16.7333C25.1666 19.915 22.6078 23.6813 17.4999 28.0417C12.392 23.6813 9.83325 19.915 9.83325 16.7333C9.83325 11.9608 13.4749 8.875 17.4999 8.875C17.8258 8.875 18.142 8.89417 18.4583 8.9325Z" fill="white"/>
<defs>
<linearGradient id="paint0_linear_19_1082" x1="2.975" y1="-3.35653e-06" x2="45.5557" y2="37.507" gradientUnits="userSpaceOnUse">
<stop stop-color="#7FBFE6"/>
<stop offset="1" stop-color="#1BA4DE"/>
</linearGradient>
</defs>
</svg>
