<svg width="18" height="25" viewBox="0 0 18 25" fill="none" xmlns="http://www.w3.org/2000/svg">
<path d="M8.75 0C3.9125 0 0 3.9125 0 8.75C0 15.3125 8.75 25 8.75 25C8.75 25 17.5 15.3125 17.5 8.75C17.5 3.9125 13.5875 0 8.75 0ZM8.75 11.875C7.9212 11.875 7.12634 11.5458 6.54029 10.9597C5.95424 10.3737 5.625 9.5788 5.625 8.75C5.625 7.9212 5.95424 7.12634 6.54029 6.54029C7.12634 5.95424 7.9212 5.625 8.75 5.625C9.5788 5.625 10.3737 5.95424 10.9597 6.54029C11.5458 7.12634 11.875 7.9212 11.875 8.75C11.875 9.5788 11.5458 10.3737 10.9597 10.9597C10.3737 11.5458 9.5788 11.875 8.75 11.875Z" fill="url(#paint0_linear_19_968)"/>
<defs>
<linearGradient id="paint0_linear_19_968" x1="8.75" y1="1.12057e-07" x2="8.74995" y2="24.25" gradientUnits="userSpaceOnUse">
<stop stop-color="#2BB06F"/>
<stop offset="1" stop-color="#029643"/>
</linearGradient>
</defs>
</svg>
