<svg width="22" height="22" viewBox="0 0 22 22" fill="none" xmlns="http://www.w3.org/2000/svg">
<path d="M5.36266 15.675C6.14183 15.0792 7.01266 14.6092 7.97516 14.2652C8.93766 13.9217 9.946 13.75 11.0002 13.75C12.0543 13.75 13.0627 13.9217 14.0252 14.2652C14.9877 14.6092 15.8585 15.0792 16.6377 15.675C17.1724 15.0486 17.5889 14.3382 17.8871 13.5438C18.1847 12.7493 18.3335 11.9014 18.3335 11C18.3335 8.96807 17.6194 7.2377 16.1912 5.80893C14.7625 4.38076 13.0321 3.66668 11.0002 3.66668C8.96822 3.66668 7.23816 4.38076 5.81 5.80893C4.38122 7.2377 3.66683 8.96807 3.66683 11C3.66683 11.9014 3.81594 12.7493 4.11416 13.5438C4.41177 14.3382 4.82794 15.0486 5.36266 15.675ZM11.0002 11.9167C10.0988 11.9167 9.33855 11.6075 8.7195 10.989C8.10105 10.37 7.79183 9.60973 7.79183 8.70834C7.79183 7.80695 8.10105 7.04673 8.7195 6.42768C9.33855 5.80923 10.0988 5.50001 11.0002 5.50001C11.9016 5.50001 12.6618 5.80923 13.2808 6.42768C13.8993 7.04673 14.2085 7.80695 14.2085 8.70834C14.2085 9.60973 13.8993 10.37 13.2808 10.989C12.6618 11.6075 11.9016 11.9167 11.0002 11.9167ZM11.0002 20.1667C9.73211 20.1667 8.54044 19.9259 7.42516 19.4443C6.30989 18.9634 5.33975 18.3104 4.51475 17.4854C3.68975 16.6604 3.03677 15.6903 2.55583 14.575C2.07427 13.4597 1.8335 12.2681 1.8335 11C1.8335 9.73195 2.07427 8.54029 2.55583 7.42501C3.03677 6.30973 3.68975 5.33959 4.51475 4.51459C5.33975 3.68959 6.30989 3.03632 7.42516 2.55476C8.54044 2.07382 9.73211 1.83334 11.0002 1.83334C12.2682 1.83334 13.4599 2.07382 14.5752 2.55476C15.6904 3.03632 16.6606 3.68959 17.4856 4.51459C18.3106 5.33959 18.9636 6.30973 19.4445 7.42501C19.9261 8.54029 20.1668 9.73195 20.1668 11C20.1668 12.2681 19.9261 13.4597 19.4445 14.575C18.9636 15.6903 18.3106 16.6604 17.4856 17.4854C16.6606 18.3104 15.6904 18.9634 14.5752 19.4443C13.4599 19.9259 12.2682 20.1667 11.0002 20.1667ZM11.0002 18.3333C11.8099 18.3333 12.5738 18.2151 13.2918 17.9786C14.0099 17.7415 14.6668 17.4014 15.2627 16.9583C14.6668 16.5153 14.0099 16.1752 13.2918 15.9381C12.5738 15.7016 11.8099 15.5833 11.0002 15.5833C10.1904 15.5833 9.42655 15.7016 8.7085 15.9381C7.99044 16.1752 7.3335 16.5153 6.73766 16.9583C7.3335 17.4014 7.99044 17.7415 8.7085 17.9786C9.42655 18.2151 10.1904 18.3333 11.0002 18.3333ZM11.0002 10.0833C11.3974 10.0833 11.7259 9.95348 11.9856 9.69376C12.2453 9.43404 12.3752 9.10557 12.3752 8.70834C12.3752 8.31112 12.2453 7.98265 11.9856 7.72293C11.7259 7.4632 11.3974 7.33334 11.0002 7.33334C10.6029 7.33334 10.2745 7.4632 10.0147 7.72293C9.75502 7.98265 9.62516 8.31112 9.62516 8.70834C9.62516 9.10557 9.75502 9.43404 10.0147 9.69376C10.2745 9.95348 10.6029 10.0833 11.0002 10.0833Z" fill="#01A856"/>
</svg>
